name ./resultDataOpenSim/trcMotMarkerGrf/sub06/grf-13-02.mot
datacolumns 19
datarows 17
range 1.60800000 1.67200000
endheader

                time	     ground_force_vx	     ground_force_vy	     ground_force_vz	     ground_force_px	     ground_force_py	     ground_force_pz	   l_ground_force_vx	   l_ground_force_vy	   l_ground_force_vz	   l_ground_force_px	   l_ground_force_py	   l_ground_force_pz	     ground_torque_x	     ground_torque_y	     ground_torque_z	   l_ground_torque_x	   l_ground_torque_y	   l_ground_torque_z	
          1.60800000	        149.94847666	        550.24964670	        -32.09576107	          0.95252765	          0.00000000	         -0.00257396	          0.00000000	          0.00000000	          0.00000000	          0.00000000	          0.00000000	          0.00000000	          0.00000000	          3.31029738	          0.00000000	          0.00000000	          0.00000000	          0.00000000	
          1.61200000	        154.21667528	        537.59369319	        -31.56268232	          0.95197819	          0.00000000	         -0.00264346	          0.00000000	          0.00000000	          0.00000000	          0.00000000	          0.00000000	          0.00000000	          0.00000000	          3.24631925	          0.00000000	          0.00000000	          0.00000000	          0.00000000	
          1.61600000	        158.63375135	        522.20580388	        -31.20544744	          0.95116599	          0.00000000	         -0.00266660	          0.00000000	          0.00000000	          0.00000000	          0.00000000	          0.00000000	          0.00000000	          0.00000000	          3.17619592	          0.00000000	          0.00000000	          0.00000000	          0.00000000	
          1.62000000	        162.90426810	        503.63120231	        -30.81251681	          0.95013930	          0.00000000	         -0.00264058	          0.00000000	          0.00000000	          0.00000000	          0.00000000	          0.00000000	          0.00000000	          0.00000000	          3.09603007	          0.00000000	          0.00000000	          0.00000000	          0.00000000	
          1.62400000	        166.52242653	        481.46928003	        -30.12159573	          0.94896833	          0.00000000	         -0.00257538	          0.00000000	          0.00000000	          0.00000000	          0.00000000	          0.00000000	          0.00000000	          0.00000000	          3.00560767	          0.00000000	          0.00000000	          0.00000000	          0.00000000	
          1.62800000	        168.85879715	        455.41018775	        -28.88726399	          0.94766767	          0.00000000	         -0.00247114	          0.00000000	          0.00000000	          0.00000000	          0.00000000	          0.00000000	          0.00000000	          0.00000000	          2.90795698	          0.00000000	          0.00000000	          0.00000000	          0.00000000	
          1.63200000	        169.19841146	        425.29385445	        -26.92934110	          0.94628610	          0.00000000	         -0.00232038	          0.00000000	          0.00000000	          0.00000000	          0.00000000	          0.00000000	          0.00000000	          0.00000000	          2.80668747	          0.00000000	          0.00000000	          0.00000000	          0.00000000	
          1.63600000	        166.78578263	        391.25255321	        -24.16873281	          0.94495186	          0.00000000	         -0.00212413	          0.00000000	          0.00000000	          0.00000000	          0.00000000	          0.00000000	          0.00000000	          0.00000000	          2.70288025	          0.00000000	          0.00000000	          0.00000000	          0.00000000	
          1.64000000	        160.93420077	        353.87759551	        -20.67231099	          0.94387351	          0.00000000	         -0.00188550	          0.00000000	          0.00000000	          0.00000000	          0.00000000	          0.00000000	          0.00000000	          0.00000000	          2.59329710	          0.00000000	          0.00000000	          0.00000000	          0.00000000	
          1.64400000	        151.17981170	        314.28394998	        -16.65435265	          0.94333443	          0.00000000	         -0.00160382	          0.00000000	          0.00000000	          0.00000000	          0.00000000	          0.00000000	          0.00000000	          0.00000000	          2.47063000	          0.00000000	          0.00000000	          0.00000000	          0.00000000	
          1.64800000	        137.42655128	        274.01167182	        -12.41434609	          0.94365039	          0.00000000	         -0.00129808	          0.00000000	          0.00000000	          0.00000000	          0.00000000	          0.00000000	          0.00000000	          0.00000000	          2.32540879	          0.00000000	          0.00000000	          0.00000000	          0.00000000	
          1.65200000	        120.04348303	        234.79418234	         -8.27363864	          0.94514490	          0.00000000	         -0.00102380	          0.00000000	          0.00000000	          0.00000000	          0.00000000	          0.00000000	          0.00000000	          0.00000000	          2.14879348	          0.00000000	          0.00000000	          0.00000000	          0.00000000	
          1.65600000	         99.88529687	        198.23692353	         -4.53484088	          0.94813898	          0.00000000	         -0.00087301	          0.00000000	          0.00000000	          0.00000000	          0.00000000	          0.00000000	          0.00000000	          0.00000000	          1.93556283	          0.00000000	          0.00000000	          0.00000000	          0.00000000	
          1.66000000	         78.22705795	        165.46315601	         -1.43759193	          0.95283192	          0.00000000	         -0.00095508	          0.00000000	          0.00000000	          0.00000000	          0.00000000	          0.00000000	          0.00000000	          0.00000000	          1.68665781	          0.00000000	          0.00000000	          0.00000000	          0.00000000	
          1.66400000	         56.62135739	        136.87240633	          0.87487330	          0.95916670	          0.00000000	         -0.00135478	          0.00000000	          0.00000000	          0.00000000	          0.00000000	          0.00000000	          0.00000000	          0.00000000	          1.41067434	          0.00000000	          0.00000000	          0.00000000	          0.00000000	
          1.66800000	         36.67525497	        112.19196093	          2.34993043	          0.96678405	          0.00000000	         -0.00209697	          0.00000000	          0.00000000	          0.00000000	          0.00000000	          0.00000000	          0.00000000	          0.00000000	          1.12388524	          0.00000000	          0.00000000	          0.00000000	          0.00000000	
          1.67200000	         19.77261820	         90.83120873	          3.00197481	          0.97502384	          0.00000000	         -0.00313264	          0.00000000	          0.00000000	          0.00000000	          0.00000000	          0.00000000	          0.00000000	          0.00000000	          0.84864701	          0.00000000	          0.00000000	          0.00000000	          0.00000000	
